# xmcd
#
# Track frame offsets:
#	150
#	21180
#	38859
#	48199
#	65448
#	82649
#	97022
#	113897
#	126321
#	141673
#	156260
#	172937
#
# Disc length: 2529 seconds
#
# Revision: 1
# Processed by: cddbd v1.5.2PL0 Copyright (c) Steve Scherf et al.
# Submitted via: audiograbber 1.83.01
#
DISCID=9d09df0c
DTITLE=Hanne, Vidar and Torhild - Han tok din plass
DYEAR=2002
DGENRE=Kristen Musikk
TTITLE0=Han tok din plass
TTITLE1=Herren krevde hellighet
TTITLE2=Alt ble gjort nytt
TTITLE3=Takk for Golgata
TTITLE4=Min bakgrunn
TTITLE5=Han er min
TTITLE6=Herre Krist
TTITLE7=Vi har fått en barnevenn
TTITLE8=Hvor finnes vel i verden
TTITLE9=Gud han gav sin kjære sønn
TTITLE10=Min kjære venn
TTITLE11=Guds nåde stor
EXTD=
EXTT0=
EXTT1=
EXTT2=
EXTT3=
EXTT4=
EXTT5=
EXTT6=
EXTT7=
EXTT8=
EXTT9=
EXTT10=
EXTT11=
PLAYORDER=
